<?xml version="1.0" encoding="utf-8"?>
<!-- Generator: Adobe Illustrator 16.0.0, SVG Export Plug-In . SVG Version: 6.00 Build 0)  -->
<!DOCTYPE svg PUBLIC "-//W3C//DTD SVG 1.1//EN" "http://www.w3.org/Graphics/SVG/1.1/DTD/svg11.dtd">
<svg version="1.1" id="Layer_1" xmlns="http://www.w3.org/2000/svg" xmlns:xlink="http://www.w3.org/1999/xlink" x="0px" y="0px"
	 width="545px" height="516px" viewBox="0 0 545 516" enable-background="new 0 0 545 516" xml:space="preserve">
<g opacity="0.07">
	<polygon fill="#A4CD39" points="258.717,201.601 312.995,98.754 370.737,201.601 	"/>
	<polygon fill="#922169" points="207.922,510.141 262.227,407.266 319.969,510.141 	"/>
	<polygon fill="#572466" points="319.877,510.141 374.174,407.266 431.934,510.141 	"/>
	<polygon fill="#16AEE5" points="428.543,304.43 482.848,201.601 540.59,304.43 	"/>
	<polygon fill="#0D395B" points="374.256,407.266 428.543,304.43 486.303,407.266 	"/>
	<polygon fill="#0A6836" points="370.737,201.601 425.024,98.754 482.774,201.601 	"/>
	<polygon fill="#C32126" points="200.965,98.754 258.717,201.601 312.995,98.754 	"/>
	<polygon fill="#F16123" points="187.605,183.859 201.442,157.624 216.177,183.859 	"/>
	<polygon fill="#F9A11D" points="172.888,157.624 187.605,183.859 201.442,157.624 	"/>
	<polygon fill="#823F97" points="374.256,407.266 431.988,510.141 486.303,407.266 	"/>
	<polygon fill="#34A784" points="370.81,201.601 428.543,304.43 482.866,201.601 	"/>
	<polygon fill="#2FAB4A" points="312.995,98.754 370.718,201.601 425.024,98.754 	"/>
	<polygon fill="#BB1E80" points="262.227,407.266 319.969,510.141 374.256,407.266 	"/>
	<polygon fill="#0E7DC1" points="428.543,304.43 486.303,407.266 540.59,304.43 	"/>
	<polygon fill="#F17D21" points="281.683,238.376 320.756,301.57 358.09,238.376 	"/>
	<polygon fill="#F48026" points="360.124,364.783 320.756,301.57 283.404,364.783 	"/>
	<polygon fill="#F16123" points="358.09,238.376 397.146,301.57 360.106,364.783 320.756,301.57 	"/>
	<polygon fill="#F9A11D" points="281.683,238.376 320.756,301.57 283.68,364.783 244.348,301.57 	"/>
	<polygon fill="#AB1F24" points="98.55,172.029 123.751,124.258 150.573,172.029 	"/>
	<polygon fill="#C32126" points="71.718,124.258 98.55,172.029 123.751,124.258 	"/>
	<polygon fill="#572466" points="34.521,86.355 60.712,36.77 88.552,86.355 	"/>
	<polygon fill="#823F97" points="6.69,36.77 34.521,86.355 60.712,36.77 	"/>
	<polygon fill="#0D395B" points="145.982,47.968 168.269,5.75 191.977,47.968 	"/>
	<polygon fill="#0E7DC1" points="122.257,5.75 145.982,47.968 168.269,5.75 	"/>
	<polygon fill="#0A6836" points="141.501,110.017 159.526,75.899 178.661,110.017 	"/>
	<polygon fill="#2FAB4A" points="122.321,75.899 141.501,110.017 159.526,75.899 	"/>
</g>
</svg>
