<?xml version="1.0" encoding="utf-8"?>
<!-- Generator: Adobe Illustrator 16.0.0, SVG Export Plug-In . SVG Version: 6.00 Build 0)  -->
<!DOCTYPE svg PUBLIC "-//W3C//DTD SVG 1.1//EN" "http://www.w3.org/Graphics/SVG/1.1/DTD/svg11.dtd">
<svg version="1.1" id="Layer_1" xmlns="http://www.w3.org/2000/svg" xmlns:xlink="http://www.w3.org/1999/xlink" x="0px" y="0px"
	 width="108.05px" height="141.393px" viewBox="0 0 108.05 141.393" enable-background="new 0 0 108.05 141.393"
	 xml:space="preserve">
<polygon fill="#A6CE39" points="47.255,36.862 57.301,17.827 67.989,36.862 "/>
<polygon fill="#93216A" points="37.853,93.969 47.905,74.928 58.591,93.969 "/>
<polygon fill="#572466" points="58.576,93.969 68.625,74.928 79.316,93.969 "/>
<polygon fill="#1AAFE6" points="78.687,55.894 88.739,36.862 99.425,55.894 "/>
<polygon fill="#0F395A" points="68.64,74.928 78.687,55.894 89.378,74.928 "/>
<polygon fill="#0A6936" points="67.989,36.862 78.037,17.827 88.724,36.862 "/>
<polygon fill="#C42126" points="36.565,17.827 47.255,36.862 57.301,17.827 "/>
<polygon fill="#F06224" points="34.093,33.579 36.655,28.723 39.383,33.579 "/>
<polygon fill="#F8A21E" points="31.367,28.723 34.093,33.579 36.655,28.723 "/>
<polygon fill="#834098" points="68.64,74.928 79.325,93.969 89.378,74.928 "/>
<polygon fill="#35A884" points="68.002,36.862 78.687,55.894 88.741,36.862 "/>
<polygon fill="#31AD4A" points="57.301,17.827 67.986,36.862 78.037,17.827 "/>
<polygon fill="#BB2080" points="47.905,74.928 58.591,93.969 68.64,74.928 "/>
<polygon fill="#127DC2" points="78.687,55.894 89.378,74.928 99.425,55.894 "/>
<polygon fill="#F27D21" points="51.507,43.667 58.737,55.364 65.648,43.667 "/>
<polygon fill="#F58126" points="66.023,67.064 58.737,55.364 51.824,67.064 "/>
<polygon fill="#F06224" points="65.648,43.667 72.876,55.364 66.021,67.064 58.737,55.364 "/>
<polygon fill="#F8A21E" points="51.507,43.667 58.737,55.364 51.876,67.064 44.596,55.364 "/>
<path fill="#0C143B" d="M22.201,124.003c-0.689,1.376-2.652,4.606-8.146,4.606H8.187c-0.992,0-1.755-0.194-2.275-0.59
	c-0.522-0.389-0.782-1.117-0.782-2.186v-18.818c0-1.519-0.723-2.454-2.167-2.81v-0.356h10.556c1.852,0,3.459,0.374,4.837,1.116
	c1.371,0.752,2.522,1.739,3.447,2.972c0.925,1.233,1.284,2.703,1.749,4.279C24.014,113.795,24.366,119.668,22.201,124.003
	 M20.273,117.292c0.035-1.442-0.118-2.83-0.354-4.144c-0.238-1.314-0.67-2.478-1.297-3.487c-0.629-1.001-1.482-1.801-2.56-2.395
	c-1.08-0.592-2.463-0.894-4.144-0.894H9.112v18.611c0,0.449,0.134,0.745,0.409,0.888c0.273,0.145,0.611,0.216,1.013,0.216h2.985
	c1.519,0,2.721-0.364,3.609-1.09C18.014,124.276,20.16,122.304,20.273,117.292"/>
<path fill="#0C143B" d="M55.782,126.346c-1.041,0.668-2.146,1.188-3.323,1.569c-1.17,0.379-2.379,0.571-3.626,0.571
	c-1.244,0-2.333-0.289-3.276-0.867c-0.938-0.571-1.718-1.319-2.333-2.245c-0.613-0.916-1.082-1.942-1.404-3.07
	c-0.323-1.131-0.48-2.243-0.48-3.349c0-1.317,0.18-2.543,0.536-3.698c0.358-1.148,0.888-2.161,1.591-3.04
	c0.701-0.873,1.58-1.564,2.625-2.076c1.045-0.501,2.272-0.753,3.676-0.753h5.114v4.971h-0.312c-0.118-0.458-0.354-0.851-0.71-1.169
	c-0.363-0.324-0.772-0.583-1.253-0.779c-0.469-0.195-0.962-0.344-1.466-0.436c-0.511-0.096-0.957-0.132-1.355-0.132
	c-0.878,0-1.614,0.24-2.201,0.722c-0.59,0.48-1.065,1.092-1.417,1.817c-0.358,0.722-0.624,1.489-0.784,2.312
	c-0.164,0.812-0.24,1.566-0.24,2.262c0,0.671,0.083,1.385,0.256,2.157c0.171,0.774,0.444,1.496,0.812,2.162
	c0.366,0.664,0.84,1.229,1.415,1.677c0.574,0.446,1.27,0.673,2.079,0.673c0.823,0,1.681-0.169,2.564-0.504
	c0.89-0.333,1.699-0.687,2.437-1.053L55.782,126.346z"/>
<path fill="#0C143B" d="M73.73,128.513h-4.588l-6.111-9.493l-1.135,1.032v8.461h-1.249c-0.925,0-1.598-0.253-2.021-0.765
	c-0.433-0.507-0.641-1.206-0.641-2.082v-18.762c0-0.828-0.174-1.456-0.516-1.883c-0.345-0.427-0.911-0.735-1.688-0.924v-0.32h6.114
	v12.26l7.963-7.293l2.095,2.025l-6.01,5.513L73.73,128.513z"/>
<path fill="#0C143B" d="M88.769,119.128H77.076v0.214c-0.054,0.756,0.048,1.558,0.301,2.397c0.251,0.842,0.608,1.603,1.081,2.297
	c0.475,0.686,1.066,1.252,1.779,1.706c0.709,0.447,1.505,0.67,2.379,0.67c1.023,0,1.939-0.3,2.758-0.903
	c0.812-0.608,1.499-1.298,2.04-2.079l0.429,0.215l-0.924,4.868h-5.228c-1.422,0-2.662-0.232-3.729-0.694
	c-1.065-0.466-1.961-1.108-2.685-1.938c-0.722-0.825-1.27-1.801-1.64-2.918c-0.363-1.106-0.543-2.327-0.543-3.66
	c0-1.201,0.147-2.426,0.455-3.657c0.31-1.235,0.784-2.345,1.419-3.339c0.64-0.995,1.462-1.812,2.468-2.44
	c1.007-0.623,2.201-0.94,3.598-0.94c1.469,0,2.691,0.296,3.675,0.889c0.98,0.596,1.771,1.377,2.377,2.349
	c0.601,0.967,1.024,2.065,1.274,3.283C88.607,116.668,88.744,117.89,88.769,119.128 M84.856,116.463
	c-0.021-0.495-0.108-1.021-0.265-1.587c-0.158-0.557-0.384-1.069-0.692-1.544c-0.311-0.472-0.691-0.87-1.138-1.188
	c-0.448-0.324-0.974-0.481-1.562-0.481c-0.643,0-1.194,0.148-1.658,0.444c-0.46,0.301-0.854,0.685-1.171,1.156
	c-0.321,0.476-0.568,0.996-0.742,1.562c-0.18,0.569-0.302,1.111-0.376,1.638H84.856z"/>
<path fill="#0C143B" d="M98.862,112.25h-3.307v12.941c0,1.734,0.839,2.766,2.525,3.097v0.321h-3.732
	c-0.761,0-1.383-0.244-1.887-0.713c-0.49-0.471-0.745-1.243-0.745-2.312V112.25h-2.022v-2.84h2.022v-5.526h3.839v5.526h3.307V112.25
	z"/>
<polygon fill="#AC1F24" points="17.611,31.389 22.275,22.547 27.24,31.389 "/>
<polygon fill="#C42126" points="12.645,22.547 17.611,31.389 22.275,22.547 "/>
<polygon fill="#572466" points="5.761,15.532 10.608,6.354 15.76,15.532 "/>
<polygon fill="#834098" points="0.61,6.354 5.761,15.532 10.608,6.354 "/>
<polygon fill="#0F395A" points="26.389,8.426 30.514,0.613 34.902,8.426 "/>
<polygon fill="#127DC2" points="21.998,0.613 26.389,8.426 30.514,0.613 "/>
<polygon fill="#0A6936" points="25.559,19.911 28.895,13.596 32.438,19.911 "/>
<polygon fill="#31AD4A" points="22.012,13.596 25.559,19.911 28.895,13.596 "/>
<g>
	<path fill="#0C143B" d="M4.562,134.247c-0.054,0-0.087-0.012-0.101-0.035c-0.013-0.023-0.02-0.052-0.02-0.086v-0.242
		c0-0.047,0.007-0.08,0.02-0.101c0.014-0.02,0.047-0.037,0.101-0.05l0.796-0.132l0.139-0.978c0.007-0.061,0.02-0.102,0.04-0.121
		c0.02-0.021,0.056-0.04,0.109-0.061l0.268-0.101c0.093-0.021,0.139,0.017,0.139,0.11v1.2h1.18c0.054,0,0.087,0.012,0.101,0.035
		c0.013,0.023,0.02,0.056,0.02,0.096v0.343c0,0.041-0.007,0.071-0.02,0.091c-0.014,0.021-0.047,0.03-0.101,0.03h-1.18v3.398
		c0,0.249,0.051,0.436,0.151,0.56c0.101,0.125,0.296,0.187,0.585,0.187c0.081,0,0.198-0.007,0.353-0.021
		c0.154-0.013,0.295-0.033,0.423-0.061c0.054-0.006,0.087-0.005,0.101,0.006c0.013,0.01,0.023,0.031,0.03,0.065l0.081,0.383
		c0.006,0.034,0.008,0.062,0.005,0.086s-0.029,0.045-0.076,0.065c-0.188,0.054-0.383,0.089-0.585,0.105
		c-0.202,0.018-0.35,0.025-0.443,0.025c-0.256,0-0.47-0.026-0.644-0.08c-0.174-0.054-0.313-0.137-0.419-0.247
		c-0.106-0.111-0.183-0.251-0.229-0.419s-0.069-0.366-0.069-0.595v-3.459H4.562z"/>
	<path fill="#0C143B" d="M12.81,138.815c0,0.054-0.01,0.089-0.03,0.105c-0.02,0.017-0.053,0.025-0.099,0.025h-0.468
		c-0.053,0-0.089-0.009-0.109-0.025s-0.03-0.052-0.03-0.105v-2.948c0-0.57-0.118-0.991-0.353-1.263s-0.605-0.407-1.109-0.407
		c-0.195,0-0.42,0.019-0.676,0.055c-0.255,0.037-0.478,0.1-0.666,0.187v4.377c0,0.054-0.01,0.089-0.03,0.105
		s-0.057,0.025-0.111,0.025H8.675c-0.047,0-0.082-0.009-0.105-0.025c-0.024-0.017-0.036-0.052-0.036-0.105v-7.109
		c0-0.054,0.012-0.089,0.036-0.105c0.023-0.017,0.059-0.025,0.105-0.025h0.454c0.054,0,0.091,0.009,0.111,0.025
		s0.03,0.052,0.03,0.105l-0.002,2.092c0.242-0.096,0.497-0.162,0.765-0.2c0.269-0.037,0.5-0.057,0.694-0.057
		c0.382,0,0.706,0.055,0.971,0.162s0.479,0.262,0.644,0.464c0.164,0.201,0.285,0.446,0.362,0.735s0.116,0.615,0.116,0.979
		L12.81,138.815z"/>
	<path fill="#0C143B" d="M16.228,133.541c0.383,0,0.712,0.056,0.988,0.167c0.275,0.11,0.502,0.267,0.681,0.469
		c0.178,0.201,0.311,0.44,0.398,0.716s0.131,0.578,0.131,0.907c0,0.282-0.065,0.47-0.197,0.56c-0.131,0.091-0.291,0.137-0.479,0.137
		h-3.085c0,0.348,0.044,0.644,0.131,0.888c0.088,0.244,0.208,0.441,0.359,0.592c0.151,0.15,0.33,0.259,0.536,0.326
		c0.206,0.066,0.427,0.1,0.663,0.1c0.223,0,0.44-0.026,0.653-0.08c0.212-0.054,0.393-0.121,0.541-0.202
		c0.081-0.04,0.138-0.026,0.172,0.041l0.182,0.354c0.041,0.082,0.023,0.14-0.05,0.174c-0.235,0.144-0.488,0.241-0.756,0.292
		c-0.269,0.051-0.531,0.077-0.787,0.077c-0.74,0-1.321-0.217-1.745-0.65c-0.423-0.434-0.635-1.128-0.635-2.083
		c0-0.45,0.057-0.849,0.171-1.194c0.114-0.347,0.274-0.637,0.479-0.872s0.447-0.414,0.726-0.535S15.892,133.541,16.228,133.541z
		 M17.72,135.89c0-0.229-0.023-0.446-0.071-0.655c-0.047-0.208-0.126-0.392-0.238-0.55c-0.111-0.157-0.265-0.283-0.46-0.378
		c-0.196-0.094-0.438-0.141-0.729-0.141c-0.236,0-0.447,0.045-0.632,0.136c-0.186,0.091-0.343,0.214-0.471,0.368
		c-0.128,0.154-0.228,0.336-0.298,0.544c-0.071,0.209-0.113,0.434-0.126,0.676H17.72z"/>
	<path fill="#0C143B" d="M21.965,136.375c0-0.377,0.047-0.736,0.141-1.079s0.241-0.644,0.439-0.902s0.449-0.466,0.751-0.62
		c0.303-0.154,0.662-0.232,1.079-0.232c0.175,0,0.375,0.012,0.6,0.036c0.225,0.023,0.455,0.072,0.69,0.146v-2.017
		c0-0.054,0.01-0.089,0.03-0.105c0.02-0.017,0.057-0.025,0.11-0.025h0.467c0.046,0,0.08,0.009,0.1,0.025
		c0.02,0.017,0.03,0.052,0.03,0.105v6.837c0,0.081-0.034,0.135-0.101,0.161c-0.342,0.148-0.692,0.244-1.051,0.287
		c-0.359,0.044-0.689,0.066-0.991,0.066c-0.409,0-0.759-0.062-1.051-0.187c-0.292-0.125-0.53-0.303-0.714-0.535
		c-0.185-0.231-0.319-0.513-0.402-0.842C22.007,137.165,21.965,136.792,21.965,136.375z M22.732,136.375
		c0,0.383,0.04,0.706,0.121,0.968c0.081,0.263,0.193,0.475,0.337,0.636s0.319,0.275,0.524,0.343s0.432,0.101,0.681,0.101
		c0.087,0,0.187-0.005,0.298-0.015c0.111-0.011,0.223-0.023,0.337-0.041c0.114-0.017,0.227-0.038,0.338-0.065
		c0.111-0.026,0.21-0.057,0.297-0.091v-3.821c-0.275-0.095-0.513-0.153-0.711-0.177s-0.375-0.035-0.529-0.035
		c-0.249,0-0.476,0.044-0.681,0.131c-0.205,0.088-0.383,0.222-0.534,0.403s-0.269,0.41-0.353,0.686
		C22.774,135.672,22.732,135.998,22.732,136.375z"/>
	<path fill="#0C143B" d="M32.15,136.274c0,0.9-0.201,1.59-0.604,2.066c-0.402,0.478-0.979,0.717-1.73,0.717
		c-0.745,0-1.313-0.234-1.706-0.701c-0.393-0.467-0.589-1.151-0.589-2.052c0-0.444,0.057-0.839,0.171-1.186
		c0.114-0.346,0.275-0.635,0.483-0.867c0.208-0.231,0.453-0.408,0.734-0.529s0.594-0.182,0.936-0.182
		c0.751,0,1.323,0.241,1.716,0.722C31.954,134.743,32.15,135.414,32.15,136.274z M31.414,136.309c0-0.276-0.024-0.544-0.071-0.804
		s-0.127-0.488-0.242-0.688c-0.115-0.198-0.274-0.357-0.479-0.475c-0.205-0.118-0.462-0.177-0.771-0.177
		c-0.282,0-0.524,0.057-0.726,0.172c-0.202,0.114-0.367,0.268-0.494,0.46c-0.128,0.191-0.222,0.416-0.282,0.672
		s-0.091,0.525-0.091,0.809c0,0.316,0.027,0.606,0.081,0.869s0.141,0.492,0.262,0.688s0.282,0.347,0.484,0.455
		c0.202,0.107,0.451,0.161,0.747,0.161c0.302,0,0.556-0.062,0.761-0.187c0.205-0.125,0.368-0.288,0.489-0.49
		s0.207-0.432,0.257-0.688S31.414,136.572,31.414,136.309z"/>
	<path fill="#0C143B" d="M35.458,138.421c0.235,0,0.465-0.03,0.69-0.091s0.415-0.134,0.57-0.222
		c0.054-0.026,0.092-0.033,0.116-0.021c0.023,0.014,0.045,0.037,0.065,0.071l0.161,0.353c0.034,0.04,0.044,0.074,0.03,0.101
		c-0.013,0.027-0.037,0.054-0.07,0.081c-0.256,0.135-0.528,0.229-0.817,0.282s-0.571,0.081-0.847,0.081
		c-0.753,0-1.323-0.226-1.709-0.676c-0.387-0.45-0.58-1.126-0.58-2.027c0-0.437,0.056-0.828,0.167-1.175
		c0.111-0.346,0.269-0.64,0.474-0.882c0.205-0.242,0.455-0.429,0.751-0.56s0.625-0.197,0.988-0.197c0.262,0,0.514,0.027,0.756,0.081
		s0.48,0.145,0.716,0.272c0.081,0.047,0.098,0.107,0.05,0.182l-0.181,0.343c-0.014,0.033-0.032,0.057-0.056,0.07
		s-0.062,0.007-0.116-0.021c-0.168-0.073-0.348-0.138-0.54-0.191c-0.192-0.054-0.402-0.08-0.63-0.08
		c-0.296,0-0.546,0.059-0.751,0.176c-0.206,0.118-0.375,0.277-0.509,0.479c-0.135,0.201-0.232,0.432-0.292,0.69
		s-0.091,0.529-0.091,0.812c0,0.289,0.027,0.56,0.081,0.812c0.054,0.252,0.145,0.47,0.272,0.655
		c0.127,0.185,0.297,0.331,0.509,0.438C34.877,138.368,35.141,138.421,35.458,138.421z"/>
	<path fill="#0C143B" d="M38.069,133.667c0.021-0.017,0.057-0.024,0.111-0.024h0.454c0.054,0,0.091,0.008,0.111,0.024
		c0.02,0.018,0.03,0.053,0.03,0.106v2.742c0,0.33,0.02,0.612,0.061,0.848c0.04,0.235,0.121,0.429,0.242,0.58
		c0.121,0.15,0.291,0.264,0.509,0.337c0.219,0.074,0.506,0.111,0.862,0.111c0.081,0,0.22-0.005,0.418-0.015
		c0.198-0.011,0.415-0.039,0.65-0.086v-4.518c0-0.054,0.01-0.089,0.03-0.106c0.02-0.017,0.057-0.024,0.109-0.024h0.458
		c0.046,0,0.082,0.008,0.104,0.024c0.023,0.018,0.035,0.053,0.035,0.106v4.518c0,0.376-0.185,0.599-0.554,0.665
		c-0.094,0.014-0.199,0.027-0.316,0.041c-0.118,0.013-0.237,0.023-0.357,0.03c-0.121,0.006-0.236,0.012-0.347,0.015
		c-0.11,0.003-0.206,0.005-0.287,0.005c-0.436,0-0.803-0.044-1.102-0.131s-0.54-0.229-0.724-0.424
		c-0.185-0.194-0.318-0.448-0.402-0.761s-0.126-0.697-0.126-1.155v-2.803C38.039,133.719,38.049,133.684,38.069,133.667z"/>
	<path fill="#0C143B" d="M48.987,133.541c0.411,0,0.754,0.06,1.03,0.177c0.276,0.118,0.499,0.284,0.667,0.499
		c0.168,0.216,0.288,0.473,0.358,0.771c0.071,0.3,0.106,0.634,0.106,1.004v2.833c0,0.054-0.009,0.088-0.026,0.101
		c-0.017,0.014-0.053,0.021-0.107,0.021h-0.46c-0.055,0-0.092-0.007-0.112-0.021c-0.021-0.013-0.031-0.047-0.031-0.101v-2.683
		c0-0.665-0.11-1.155-0.332-1.472s-0.616-0.474-1.186-0.474c-0.101,0-0.214,0.01-0.342,0.03c-0.127,0.02-0.256,0.049-0.387,0.085
		c-0.13,0.037-0.258,0.079-0.382,0.126c-0.124,0.048-0.236,0.102-0.337,0.162c0.094,0.188,0.158,0.401,0.191,0.64
		c0.034,0.239,0.05,0.52,0.05,0.842v2.743c0,0.054-0.01,0.088-0.031,0.101c-0.021,0.014-0.058,0.021-0.112,0.021h-0.46
		c-0.048,0-0.082-0.007-0.103-0.021c-0.021-0.013-0.03-0.047-0.03-0.101v-2.763c0-0.303-0.025-0.57-0.076-0.802
		c-0.051-0.232-0.136-0.427-0.257-0.585s-0.286-0.277-0.494-0.358c-0.208-0.08-0.474-0.12-0.796-0.12
		c-0.081,0-0.208,0.005-0.383,0.015s-0.38,0.039-0.615,0.086v4.518c0,0.054-0.01,0.089-0.03,0.105
		c-0.02,0.017-0.057,0.025-0.111,0.025h-0.454c-0.047,0-0.083-0.009-0.106-0.025s-0.035-0.052-0.035-0.105v-4.508
		c0-0.383,0.182-0.604,0.545-0.665c0.081-0.014,0.172-0.027,0.273-0.041c0.101-0.013,0.205-0.024,0.313-0.035
		c0.107-0.01,0.212-0.017,0.313-0.02c0.101-0.004,0.188-0.006,0.262-0.006c0.411,0,0.752,0.046,1.025,0.137
		c0.273,0.091,0.514,0.236,0.722,0.438h0.01c0.256-0.175,0.551-0.314,0.884-0.419C48.275,133.593,48.624,133.541,48.987,133.541z"/>
	<path fill="#0C143B" d="M54.556,133.541c0.383,0,0.712,0.056,0.988,0.167c0.275,0.11,0.502,0.267,0.681,0.469
		c0.178,0.201,0.311,0.44,0.398,0.716s0.131,0.578,0.131,0.907c0,0.282-0.065,0.47-0.197,0.56c-0.131,0.091-0.291,0.137-0.479,0.137
		h-3.085c0,0.348,0.044,0.644,0.131,0.888c0.088,0.244,0.208,0.441,0.359,0.592c0.151,0.15,0.33,0.259,0.536,0.326
		c0.206,0.066,0.427,0.1,0.663,0.1c0.223,0,0.44-0.026,0.653-0.08c0.212-0.054,0.393-0.121,0.541-0.202
		c0.081-0.04,0.138-0.026,0.172,0.041l0.182,0.354c0.041,0.082,0.023,0.14-0.05,0.174c-0.235,0.144-0.488,0.241-0.756,0.292
		c-0.269,0.051-0.531,0.077-0.787,0.077c-0.74,0-1.321-0.217-1.745-0.65c-0.423-0.434-0.635-1.128-0.635-2.083
		c0-0.45,0.057-0.849,0.171-1.194c0.114-0.347,0.274-0.637,0.479-0.872s0.447-0.414,0.726-0.535S54.22,133.541,54.556,133.541z
		 M56.048,135.89c0-0.229-0.023-0.446-0.071-0.655c-0.047-0.208-0.126-0.392-0.238-0.55c-0.111-0.157-0.265-0.283-0.46-0.378
		c-0.196-0.094-0.438-0.141-0.729-0.141c-0.236,0-0.447,0.045-0.632,0.136c-0.186,0.091-0.343,0.214-0.471,0.368
		c-0.128,0.154-0.228,0.336-0.298,0.544c-0.071,0.209-0.113,0.434-0.126,0.676H56.048z"/>
	<path fill="#0C143B" d="M62.079,138.92c-0.02,0.017-0.057,0.025-0.109,0.025h-0.457c-0.047,0-0.082-0.009-0.105-0.025
		s-0.033-0.052-0.033-0.105v-2.692c0-0.323-0.025-0.605-0.076-0.848c-0.051-0.241-0.141-0.441-0.268-0.6s-0.305-0.277-0.529-0.358
		c-0.225-0.08-0.51-0.12-0.852-0.12c-0.082,0-0.223,0.005-0.424,0.015s-0.42,0.039-0.656,0.086v4.518
		c0,0.054-0.01,0.089-0.029,0.105c-0.021,0.017-0.059,0.025-0.111,0.025h-0.454c-0.047,0-0.082-0.009-0.105-0.025
		c-0.024-0.017-0.036-0.052-0.036-0.105v-4.508c0-0.383,0.182-0.604,0.543-0.665c0.082-0.014,0.18-0.027,0.297-0.041
		c0.117-0.013,0.238-0.024,0.363-0.035c0.123-0.01,0.244-0.017,0.361-0.02c0.117-0.004,0.217-0.006,0.297-0.006
		c0.43,0,0.797,0.048,1.102,0.142s0.555,0.242,0.75,0.443c0.193,0.202,0.336,0.464,0.428,0.787c0.09,0.322,0.135,0.712,0.135,1.169
		v2.733C62.108,138.869,62.098,138.904,62.079,138.92z"/>
	<path fill="#0C143B" d="M63.096,134.247c-0.054,0-0.087-0.012-0.101-0.035s-0.02-0.052-0.02-0.086v-0.242
		c0-0.047,0.006-0.08,0.02-0.101c0.014-0.02,0.047-0.037,0.101-0.05l0.797-0.132l0.14-0.978c0.006-0.061,0.02-0.102,0.039-0.121
		c0.021-0.021,0.057-0.04,0.109-0.061l0.269-0.101c0.093-0.021,0.14,0.017,0.14,0.11v1.2h1.18c0.054,0,0.087,0.012,0.101,0.035
		s0.021,0.056,0.021,0.096v0.343c0,0.041-0.007,0.071-0.021,0.091c-0.014,0.021-0.047,0.03-0.101,0.03h-1.18v3.398
		c0,0.249,0.05,0.436,0.151,0.56c0.101,0.125,0.295,0.187,0.584,0.187c0.081,0,0.198-0.007,0.354-0.021
		c0.154-0.013,0.296-0.033,0.424-0.061c0.054-0.006,0.087-0.005,0.101,0.006c0.013,0.01,0.023,0.031,0.03,0.065l0.08,0.383
		c0.007,0.034,0.009,0.062,0.006,0.086c-0.004,0.023-0.029,0.045-0.076,0.065c-0.188,0.054-0.383,0.089-0.585,0.105
		c-0.201,0.018-0.35,0.025-0.443,0.025c-0.256,0-0.47-0.026-0.644-0.08s-0.313-0.137-0.42-0.247
		c-0.105-0.111-0.182-0.251-0.229-0.419c-0.046-0.168-0.069-0.366-0.069-0.595v-3.459H63.096z"/>
	<path fill="#0C143B" d="M71.83,133.541c0.383,0,0.713,0.056,0.988,0.167c0.275,0.11,0.502,0.267,0.681,0.469
		c0.178,0.201,0.311,0.44,0.398,0.716c0.087,0.275,0.131,0.578,0.131,0.907c0,0.282-0.065,0.47-0.196,0.56
		c-0.132,0.091-0.291,0.137-0.479,0.137h-3.086c0,0.348,0.044,0.644,0.132,0.888s0.207,0.441,0.359,0.592
		c0.151,0.15,0.33,0.259,0.536,0.326c0.206,0.066,0.427,0.1,0.662,0.1c0.223,0,0.44-0.026,0.653-0.08
		c0.212-0.054,0.393-0.121,0.541-0.202c0.081-0.04,0.139-0.026,0.172,0.041l0.182,0.354c0.04,0.082,0.023,0.14-0.051,0.174
		c-0.235,0.144-0.487,0.241-0.756,0.292s-0.531,0.077-0.786,0.077c-0.74,0-1.321-0.217-1.745-0.65
		c-0.423-0.434-0.635-1.128-0.635-2.083c0-0.45,0.057-0.849,0.171-1.194c0.114-0.347,0.274-0.637,0.479-0.872
		s0.446-0.414,0.726-0.535S71.494,133.541,71.83,133.541z M73.322,135.89c0-0.229-0.023-0.446-0.07-0.655
		c-0.048-0.208-0.127-0.392-0.238-0.55c-0.111-0.157-0.265-0.283-0.46-0.378c-0.196-0.094-0.438-0.141-0.729-0.141
		c-0.236,0-0.447,0.045-0.633,0.136s-0.342,0.214-0.47,0.368c-0.129,0.154-0.229,0.336-0.299,0.544
		c-0.071,0.209-0.113,0.434-0.127,0.676H73.322z"/>
	<path fill="#0C143B" d="M77.165,136.102l1.774,2.723c0.014,0.021,0.021,0.046,0.021,0.076s-0.027,0.045-0.081,0.045h-0.615
		c-0.067,0-0.11-0.009-0.131-0.025s-0.04-0.042-0.061-0.075l-1.341-2.188l-1.382,2.178c-0.021,0.034-0.044,0.061-0.07,0.081
		c-0.027,0.021-0.067,0.03-0.121,0.03h-0.545c-0.087,0-0.107-0.044-0.061-0.131l1.765-2.683l-1.522-2.35
		c-0.014-0.02-0.021-0.047-0.021-0.08c0-0.034,0.027-0.051,0.081-0.051h0.564c0.054,0,0.095,0.009,0.121,0.025
		c0.027,0.017,0.051,0.042,0.07,0.075l1.15,1.855l1.159-1.855c0.021-0.033,0.042-0.059,0.065-0.075s0.062-0.025,0.116-0.025h0.545
		c0.054,0,0.082,0.015,0.085,0.045c0.004,0.03-0.001,0.053-0.015,0.066L77.165,136.102z"/>
	<path fill="#0C143B" d="M84.132,136.284c0,0.39-0.047,0.753-0.142,1.089c-0.094,0.336-0.238,0.629-0.434,0.878
		c-0.194,0.248-0.438,0.445-0.73,0.59c-0.293,0.145-0.634,0.217-1.023,0.217c-0.195,0-0.41-0.014-0.646-0.041
		c-0.235-0.026-0.481-0.077-0.736-0.151v2.007c0,0.054-0.009,0.088-0.025,0.101c-0.017,0.014-0.052,0.021-0.105,0.021h-0.464
		c-0.048,0-0.083-0.007-0.106-0.021c-0.023-0.013-0.035-0.047-0.035-0.101v-6.807c0-0.08,0.037-0.134,0.111-0.161
		c0.322-0.141,0.66-0.237,1.013-0.287c0.354-0.051,0.691-0.076,1.014-0.076c0.396,0,0.741,0.067,1.034,0.202
		c0.292,0.135,0.532,0.322,0.721,0.564s0.328,0.531,0.418,0.867C84.086,135.51,84.132,135.88,84.132,136.284z M83.366,136.284
		c0-0.396-0.04-0.729-0.121-0.998c-0.08-0.269-0.195-0.486-0.343-0.65c-0.147-0.165-0.322-0.282-0.524-0.354
		c-0.201-0.07-0.427-0.105-0.676-0.105c-0.182,0-0.395,0.019-0.64,0.056c-0.246,0.037-0.459,0.092-0.641,0.166v3.812
		c0.282,0.095,0.526,0.153,0.731,0.177c0.204,0.023,0.385,0.035,0.539,0.035c0.242,0,0.466-0.038,0.671-0.116
		c0.205-0.077,0.381-0.201,0.529-0.373c0.147-0.171,0.264-0.393,0.348-0.665S83.366,136.667,83.366,136.284z"/>
	<path fill="#0C143B" d="M87.338,133.541c0.383,0,0.713,0.056,0.988,0.167c0.275,0.11,0.502,0.267,0.681,0.469
		c0.178,0.201,0.311,0.44,0.398,0.716c0.087,0.275,0.131,0.578,0.131,0.907c0,0.282-0.065,0.47-0.196,0.56
		c-0.132,0.091-0.291,0.137-0.479,0.137h-3.086c0,0.348,0.044,0.644,0.132,0.888s0.207,0.441,0.359,0.592
		c0.151,0.15,0.33,0.259,0.536,0.326c0.206,0.066,0.427,0.1,0.662,0.1c0.223,0,0.44-0.026,0.653-0.08
		c0.212-0.054,0.393-0.121,0.541-0.202c0.081-0.04,0.139-0.026,0.172,0.041l0.182,0.354c0.04,0.082,0.023,0.14-0.051,0.174
		c-0.235,0.144-0.487,0.241-0.756,0.292s-0.531,0.077-0.786,0.077c-0.74,0-1.321-0.217-1.745-0.65
		c-0.423-0.434-0.635-1.128-0.635-2.083c0-0.45,0.057-0.849,0.171-1.194c0.114-0.347,0.274-0.637,0.479-0.872
		s0.446-0.414,0.726-0.535S87.002,133.541,87.338,133.541z M88.831,135.89c0-0.229-0.023-0.446-0.07-0.655
		c-0.048-0.208-0.127-0.392-0.238-0.55c-0.111-0.157-0.265-0.283-0.46-0.378c-0.196-0.094-0.438-0.141-0.729-0.141
		c-0.236,0-0.447,0.045-0.633,0.136s-0.342,0.214-0.47,0.368c-0.129,0.154-0.229,0.336-0.299,0.544
		c-0.071,0.209-0.113,0.434-0.127,0.676H88.831z"/>
	<path fill="#0C143B" d="M93.762,134.771c-0.034,0.034-0.061,0.049-0.081,0.046c-0.02-0.004-0.044-0.016-0.07-0.036
		c-0.188-0.174-0.405-0.315-0.65-0.423s-0.52-0.161-0.822-0.161c-0.094,0-0.2,0.003-0.317,0.01s-0.243,0.026-0.378,0.061v4.547
		c0,0.055-0.011,0.09-0.031,0.106s-0.058,0.025-0.112,0.025h-0.46c-0.048,0-0.082-0.009-0.103-0.025s-0.03-0.052-0.03-0.105v-4.548
		c0-0.208,0.036-0.363,0.107-0.464s0.217-0.168,0.435-0.202c0.305-0.04,0.584-0.061,0.84-0.061c0.786,0,1.445,0.229,1.977,0.687
		c0.047,0.047,0.05,0.094,0.01,0.141L93.762,134.771z"/>
	<path fill="#0C143B" d="M94.397,134.247c-0.054,0-0.087-0.012-0.101-0.035s-0.02-0.052-0.02-0.086v-0.242
		c0-0.047,0.006-0.08,0.02-0.101c0.014-0.02,0.047-0.037,0.101-0.05l0.797-0.132l0.14-0.978c0.006-0.061,0.02-0.102,0.039-0.121
		c0.021-0.021,0.057-0.04,0.109-0.061l0.269-0.101c0.093-0.021,0.14,0.017,0.14,0.11v1.2h1.18c0.054,0,0.087,0.012,0.101,0.035
		s0.021,0.056,0.021,0.096v0.343c0,0.041-0.007,0.071-0.021,0.091c-0.014,0.021-0.047,0.03-0.101,0.03h-1.18v3.398
		c0,0.249,0.05,0.436,0.151,0.56c0.101,0.125,0.295,0.187,0.584,0.187c0.081,0,0.198-0.007,0.354-0.021
		c0.154-0.013,0.296-0.033,0.424-0.061c0.054-0.006,0.087-0.005,0.101,0.006c0.013,0.01,0.023,0.031,0.03,0.065l0.08,0.383
		c0.007,0.034,0.009,0.062,0.006,0.086c-0.004,0.023-0.029,0.045-0.076,0.065c-0.188,0.054-0.383,0.089-0.585,0.105
		c-0.201,0.018-0.35,0.025-0.443,0.025c-0.256,0-0.47-0.026-0.644-0.08s-0.313-0.137-0.42-0.247
		c-0.105-0.111-0.182-0.251-0.229-0.419c-0.046-0.168-0.069-0.366-0.069-0.595v-3.459H94.397z"/>
</g>
<g>
	<path fill="#0C143B" d="M40.45,118.831c0,1.193-0.178,2.375-0.535,3.551c-0.355,1.176-0.876,2.225-1.56,3.152
		c-0.687,0.929-1.538,1.682-2.555,2.26c-1.015,0.58-2.186,0.87-3.508,0.87c-1.323,0-2.488-0.29-3.494-0.87
		c-1.01-0.578-1.857-1.337-2.541-2.271c-0.687-0.936-1.203-1.985-1.549-3.153c-0.35-1.167-0.523-2.345-0.523-3.538
		c0-1.192,0.178-2.358,0.535-3.5c0.354-1.143,0.878-2.16,1.574-3.053c0.694-0.896,1.544-1.621,2.553-2.173
		c1.008-0.556,2.157-0.835,3.445-0.835c1.307,0,2.467,0.273,3.482,0.823c1.018,0.546,1.873,1.265,2.567,2.157
		c0.694,0.897,1.219,1.915,1.574,3.067C40.271,116.468,40.45,117.638,40.45,118.831z M37.395,118.831
		c0-0.746-0.097-1.546-0.287-2.409c-0.192-0.859-0.495-1.659-0.909-2.396c-0.414-0.735-0.946-1.354-1.593-1.849
		c-0.647-0.495-1.419-0.745-2.314-0.745s-1.66,0.25-2.29,0.745c-0.631,0.494-1.153,1.115-1.567,1.863
		c-0.416,0.744-0.719,1.549-0.909,2.406c-0.192,0.863-0.287,1.655-0.287,2.384c0,0.96,0.109,1.888,0.324,2.782
		c0.215,0.892,0.596,1.744,1.145,2.558c0.199,0.313,0.428,0.62,0.685,0.918c0.257,0.297,0.534,0.558,0.834,0.779
		c0.298,0.226,0.625,0.401,0.982,0.536c0.357,0.132,0.733,0.196,1.133,0.196c0.895,0,1.663-0.266,2.301-0.805s1.161-1.207,1.567-2
		c0.408-0.793,0.705-1.638,0.897-2.531C37.298,120.369,37.395,119.561,37.395,118.831z"/>
</g>
<g>
	<path fill="#0C143B" d="M100.203,102.355c-0.01,0.011-0.03,0.016-0.06,0.016H99.81c-0.033,0-0.056-0.005-0.068-0.016
		s-0.02-0.032-0.02-0.066v-3.887h-1.256c-0.033,0-0.055-0.006-0.062-0.017c-0.009-0.01-0.013-0.032-0.013-0.065v-0.258
		c0-0.033,0.004-0.057,0.013-0.069c0.008-0.012,0.029-0.019,0.062-0.019h3.053c0.033,0,0.056,0.007,0.065,0.019
		c0.011,0.013,0.016,0.036,0.016,0.069v0.258c0,0.033-0.005,0.056-0.016,0.065c-0.01,0.011-0.032,0.017-0.065,0.017h-1.3v3.887
		C100.219,102.323,100.213,102.344,100.203,102.355z"/>
	<path fill="#0C143B" d="M104.207,101.404c0.017-0.038,0.042-0.099,0.076-0.183c0.033-0.084,0.069-0.174,0.109-0.27
		c0.04-0.097,0.076-0.187,0.11-0.271c0.033-0.084,0.059-0.145,0.075-0.182c0.037-0.089,0.082-0.198,0.135-0.33
		s0.11-0.272,0.173-0.421s0.127-0.303,0.191-0.462s0.126-0.309,0.183-0.449c0.056-0.14,0.108-0.267,0.156-0.38
		c0.049-0.112,0.085-0.2,0.11-0.264c0.037-0.096,0.077-0.158,0.119-0.185c0.042-0.027,0.103-0.041,0.183-0.041h0.144
		c0.109,0,0.182,0.024,0.217,0.075c0.036,0.05,0.054,0.117,0.054,0.201v4.044c0,0.034-0.008,0.056-0.021,0.066
		c-0.016,0.011-0.037,0.016-0.066,0.016h-0.295c-0.034,0-0.057-0.005-0.069-0.016s-0.019-0.032-0.019-0.066v-3.473h-0.031
		l-0.315,0.772c-0.046,0.109-0.107,0.257-0.186,0.442c-0.077,0.187-0.158,0.382-0.242,0.584c-0.084,0.203-0.166,0.399-0.245,0.588
		c-0.08,0.188-0.143,0.335-0.189,0.439c-0.033,0.084-0.067,0.142-0.104,0.173c-0.035,0.031-0.096,0.047-0.18,0.047h-0.17
		c-0.083,0-0.145-0.016-0.182-0.047c-0.038-0.031-0.074-0.089-0.107-0.173c-0.046-0.108-0.109-0.258-0.188-0.446
		c-0.08-0.188-0.163-0.385-0.249-0.59s-0.169-0.402-0.248-0.591c-0.08-0.188-0.146-0.337-0.195-0.445l-0.29-0.704h-0.037v3.423
		c0,0.034-0.007,0.056-0.019,0.066c-0.013,0.011-0.035,0.016-0.068,0.016h-0.285c-0.033,0-0.056-0.005-0.068-0.016
		c-0.012-0.011-0.019-0.032-0.019-0.066v-4.044c0-0.084,0.017-0.151,0.051-0.201c0.033-0.051,0.104-0.075,0.213-0.075h0.145
		c0.084,0,0.146,0.014,0.186,0.041c0.04,0.026,0.078,0.089,0.116,0.185c0.009,0.021,0.035,0.085,0.082,0.191
		c0.046,0.107,0.101,0.237,0.163,0.39c0.062,0.153,0.131,0.318,0.204,0.496c0.073,0.179,0.144,0.349,0.21,0.512
		c0.067,0.164,0.126,0.308,0.176,0.434c0.051,0.126,0.086,0.212,0.107,0.258c0.017,0.037,0.043,0.101,0.078,0.188
		c0.036,0.088,0.073,0.18,0.113,0.276c0.04,0.096,0.076,0.188,0.109,0.276c0.034,0.088,0.059,0.15,0.076,0.188H104.207z"/>
</g>
</svg>
